HIERARCHY
ROOT Hips
{
	OFFSET -0.179506 -22.333345 2.821913
	CHANNELS 6 Xposition Yposition Zposition Zrotation Yrotation Xrotation 
	JOINT LeftUpLeg
	{
		OFFSET 6.951974 -9.140623 -0.681533
		CHANNELS 3 Zrotation Yrotation Xrotation
		JOINT LeftLeg
		{
			OFFSET 3.427654 -37.519855 -0.449580
			CHANNELS 3 Zrotation Yrotation Xrotation
			JOINT LeftFoot
			{
				OFFSET -1.359570 -39.796059 -4.369333
				CHANNELS 3 Zrotation Yrotation Xrotation
				JOINT LeftToe
				{
					OFFSET 2.635814 -5.579078 11.928840
					CHANNELS 3 Zrotation Yrotation Xrotation
					End Site
					{
						OFFSET 0.000000 0.000000 0.000000
					}
				}
			}
		}
	}
	JOINT RightUpLeg
	{
		OFFSET -6.767048 -9.052170 -0.431982
		CHANNELS 3 Zrotation Yrotation Xrotation
		JOINT RightLeg
		{
			OFFSET -3.829005 -38.256897 -0.885003
			CHANNELS 3 Zrotation Yrotation Xrotation
			JOINT RightFoot
			{
				OFFSET 1.577377 -39.841461 -4.231180
				CHANNELS 3 Zrotation Yrotation Xrotation
				JOINT RightToe
				{
					OFFSET -2.537174 -4.814398 12.334795
					CHANNELS 3 Zrotation Yrotation Xrotation
					End Site
					{
						OFFSET 0.000000 0.000000 0.000000
					}
				}
			}
		}
	}
	JOINT Spine
	{
		OFFSET -0.253288 10.896323 -2.669631
		CHANNELS 3 Zrotation Yrotation Xrotation
		JOINT Spine1
		{
			OFFSET 0.548704 13.518043 0.109247
			CHANNELS 3 Zrotation Yrotation Xrotation
			JOINT Spine2
			{
				OFFSET 0.145701 5.292222 2.542457
				CHANNELS 3 Zrotation Yrotation Xrotation
				JOINT Neck
				{
					OFFSET -0.277840 21.387037 -4.285703
					CHANNELS 3 Zrotation Yrotation Xrotation
					JOINT Head
					{
						OFFSET 0.515184 6.496960 5.134897
						CHANNELS 3 Zrotation Yrotation Xrotation
						End Site
						{
							OFFSET 0.000000 0.000000 0.000000
						}
					}
				}
				JOINT LeftShoulder
				{
					OFFSET 7.884473 12.174932 -3.408961
					CHANNELS 3 Zrotation Yrotation Xrotation
					JOINT LeftArm
					{
						OFFSET 9.097692 3.046888 -0.886815
						CHANNELS 3 Zrotation Yrotation Xrotation
						JOINT LeftForeArm
						{
							OFFSET 25.961220 -1.277207 -2.745643
							CHANNELS 3 Zrotation Yrotation Xrotation
							JOINT LeftHand
							{
								OFFSET 24.923361 0.898606 -0.117091
								CHANNELS 3 Zrotation Yrotation Xrotation
								End Site
								{
									OFFSET 0.000000 0.000000 0.000000
								}
							}
						}
					}
				}
				JOINT RightShoulder
				{
					OFFSET -8.175920 11.883285 -3.861528
					CHANNELS 3 Zrotation Yrotation Xrotation
					JOINT RightArm
					{
						OFFSET -9.601238 3.255117 -0.914307
						CHANNELS 3 Zrotation Yrotation Xrotation
						JOINT RightForeArm
						{
							OFFSET -25.374195 -1.332924 -2.140099
							CHANNELS 3 Zrotation Yrotation Xrotation
							JOINT RightHand
							{
								OFFSET -25.529810 0.777228 -0.555919
								CHANNELS 3 Zrotation Yrotation Xrotation
								End Site
								{
									OFFSET 0.000000 0.000000 0.000000
								}
							}
						}
					}
				}
			}
		}
	}
}
MOTION
Frames: 15
Frame Time: 0.033333
52.560734 50.900753 92.242172 -177.480456 -0.113937 90.747948 3.552073 2.548496 3.077734 -4.883490 -3.644682 -5.374776 3.291413 9.404211 -5.943837 nan nan nan -5.228714 -4.055234 1.630298 4.543301 -2.858636 -2.156161 2.427142 -8.257065 -6.639312 nan nan nan -0.070210 0.734643 0.561336 1.581588 -4.070713 5.938761 1.246610 -0.703075 -3.982823 -0.544198 1.858727 -0.281155 2.946450 0.084145 11.208012 -29.330319 -3.449751 4.081650 -57.117732 -8.710365 16.130489 4.573699 -17.189027 13.622200 -13.392882 -14.905785 2.354057 29.775215 4.601817 5.851181 55.147963 5.122593 14.305327 -12.168104 21.817919 -0.275552 11.618808 8.281897 -3.707838 
52.569241 50.902428 92.246292 -177.478147 -0.105702 90.739002 3.572350 2.559088 3.090655 -4.897191 -3.638259 -5.376436 3.283407 9.386533 -5.949254 nan nan nan -5.211196 -4.058955 1.644029 4.539207 -2.865210 -2.165126 2.415814 -8.243836 -6.648775 nan nan nan -0.071431 0.736262 0.575666 1.582379 -4.069510 5.944288 1.246942 -0.708177 -3.993160 -0.531368 1.871041 -0.275536 2.947281 0.093817 11.214729 -29.338298 -3.454599 4.102766 -57.090533 -8.676261 16.120853 4.575642 -17.243892 13.583112 -13.349283 -14.905662 2.329515 29.789147 4.609433 5.850224 55.150114 5.113703 14.299334 -12.178765 21.826907 -0.307672 11.612787 8.276039 -3.748549 
52.576603 50.891083 92.247231 -177.476418 -0.081920 90.732812 3.605614 2.586276 3.088554 -4.897675 -3.666761 -5.359741 3.288781 9.365676 -5.998075 nan nan nan -5.161091 -4.048591 1.636340 4.516347 -2.850828 -2.143924 2.384952 -8.206266 -6.686666 nan nan nan -0.055665 0.739567 0.602972 1.590854 -4.071213 5.979654 1.236938 -0.732614 -4.052679 -0.472945 1.908411 -0.283162 2.928128 0.156117 11.245834 -29.425186 -3.472979 4.161928 -56.953878 -8.528728 16.077670 4.589460 -17.493113 13.303368 -13.129565 -14.907067 2.256253 29.832053 4.634345 5.852314 55.177131 5.078053 14.279878 -12.273723 21.879646 -0.487395 11.521439 8.241309 -3.878900 
52.566490 50.880974 92.240143 -177.460602 -0.067930 90.730892 3.597548 2.589963 3.069143 -4.859497 -3.727538 -5.329013 3.306528 9.394419 -6.004800 nan nan nan -5.146546 -4.048290 1.638050 4.514636 -2.847246 -2.126035 2.381376 -8.241837 -6.708794 nan nan nan -0.043531 0.731394 0.624573 1.614204 -4.097271 5.968232 1.234651 -0.735611 -4.053502 -0.484771 1.875365 -0.276079 2.902594 0.178755 11.197750 -29.403885 -3.452534 4.111846 -57.016897 -8.522239 16.113426 4.619376 -17.481009 13.255583 -13.167877 -14.932945 2.318821 29.757313 4.658040 5.854262 55.251670 5.073750 14.304002 -12.297627 21.853151 -0.448106 11.537873 8.226834 -3.846248 
52.554913 50.882580 92.233849 -177.436591 -0.066378 90.712928 3.588936 2.611328 3.088409 -4.847695 -3.788674 -5.340732 3.329088 9.423398 -5.946440 nan nan nan -5.193860 -4.092754 1.623423 4.582277 -2.841574 -2.055577 2.391105 -8.224071 -6.696132 nan nan nan -0.013358 0.699440 0.661878 1.607076 -4.116792 5.910577 1.228540 -0.724919 -4.007086 -0.546869 1.846728 -0.286653 2.893213 0.192251 11.149142 -29.352445 -3.431999 4.059805 -57.103192 -8.632288 16.151824 4.622088 -17.278895 13.517411 -13.314072 -14.922267 2.283934 29.722608 4.654824 5.840458 55.288249 5.105914 14.348200 -12.315674 21.786130 -0.389787 11.561716 8.220777 -3.919996 
52.555191 50.890305 92.228355 -177.457567 -0.060737 90.758772 3.586004 2.630403 3.060102 -4.833380 -3.806268 -5.389680 3.335006 9.453794 -5.930539 nan nan nan -5.226560 -4.143700 1.489732 4.649329 -2.831125 -1.895988 2.367368 -8.158741 -6.697147 nan nan nan -0.004902 0.693854 0.581169 1.617003 -4.109301 5.956298 1.219246 -0.706425 -4.030149 -0.557422 1.869115 -0.287860 2.898384 0.173914 11.138435 -29.361815 -3.422690 4.040008 -57.119729 -8.681779 16.152114 4.634607 -17.152890 13.581810 -13.397917 -14.867105 2.254497 29.735288 4.655439 5.860305 55.247225 5.133315 14.365111 -12.284059 21.752221 -0.395965 11.565160 8.221807 -3.925409 
52.560165 50.897385 92.228058 -177.469216 -0.059880 90.767138 3.588138 2.632338 3.057853 -4.837343 -3.781025 -5.394435 3.317852 9.447760 -5.934118 nan nan nan -5.218454 -4.154191 1.482162 4.645105 -2.834073 -1.900570 2.375785 -8.159006 -6.701751 nan nan nan -0.016113 0.706745 0.548514 1.623736 -4.101136 5.988731 1.219029 -0.705197 -4.040622 -0.550469 1.879419 -0.288491 2.900678 0.154533 11.138370 -29.371116 -3.415293 4.035029 -57.104740 -8.680458 16.133589 4.619403 -17.154646 13.568207 -13.417355 -14.850940 2.286006 29.752410 4.651013 5.856988 55.209453 5.130199 14.363539 -12.246860 21.755003 -0.342757 11.583895 8.206510 -3.807589 
52.570080 50.911030 92.227104 -177.479943 -0.059996 90.800812 3.606998 2.612033 3.021413 -4.861306 -3.672293 -5.367231 3.248545 9.387990 -5.944181 nan nan nan -5.171002 -4.136086 1.522891 4.580952 -2.856663 -2.058431 2.384278 -8.218675 -6.748617 nan nan nan -0.059940 0.742737 0.428740 1.645078 -4.092496 6.061199 1.225154 -0.726581 -4.030289 -0.501190 1.923888 -0.287622 2.908484 0.108147 11.188925 -29.390059 -3.408717 4.037161 -57.038249 -8.722230 16.071374 4.504565 -17.105853 13.564093 -13.456691 -14.831687 2.421321 29.806037 4.612116 5.822132 55.102241 5.149713 14.326594 -12.114055 21.730927 -0.232204 11.601371 8.215914 -3.473103 
52.561176 50.906586 92.222740 -177.488893 -0.067695 90.800381 3.619823 2.615008 3.025357 -4.909641 -3.628547 -5.361737 3.273412 9.358922 -5.962557 nan nan nan -5.177378 -4.104506 1.549581 4.571086 -2.861358 -2.099581 2.367065 -8.223974 -6.779002 nan nan nan -0.073341 0.756970 0.421594 1.643138 -4.080325 6.051736 1.240609 -0.730417 -4.013729 -0.411593 1.944283 -0.311477 2.873110 0.178165 11.257038 -29.414362 -3.448125 4.060222 -56.999065 -8.710273 16.072485 4.453527 -17.141430 13.571175 -13.338513 -14.802996 2.404716 29.784225 4.600524 5.841440 55.089655 5.172747 14.277817 -12.112761 21.766811 -0.363520 11.515620 8.243557 -3.596026 
52.559940 50.900238 92.215828 -177.508891 -0.064820 90.774030 3.609149 2.617521 3.068982 -4.878007 -3.676782 -5.390930 3.318791 9.391536 -5.931982 nan nan nan -5.167497 -4.104507 1.572267 4.557110 -2.849501 -2.093351 2.320605 -8.204981 -6.717258 nan nan nan -0.073373 0.740040 0.475813 1.633654 -4.109190 6.068687 1.249219 -0.679707 -4.059295 -0.409858 1.943411 -0.331472 2.851410 0.250663 11.301570 -29.386074 -3.489602 4.070475 -57.040421 -8.671930 16.119501 4.498548 -17.137816 13.576643 -13.252394 -14.828462 2.344821 29.753171 4.642188 5.897492 55.128146 5.188863 14.244039 -12.132879 21.793346 -0.459182 11.413346 8.273337 -3.760440 
52.562485 50.898521 92.217560 -177.523202 -0.072720 90.743395 3.573174 2.623239 3.118466 -4.830821 -3.704304 -5.427216 3.332229 9.448547 -5.902141 nan nan nan -5.167227 -4.093409 1.605278 4.537815 -2.827741 -2.111324 2.308008 -8.209970 -6.696172 nan nan nan -0.084411 0.712550 0.557465 1.617376 -4.124946 6.033413 1.254474 -0.649951 -4.079927 -0.489345 1.894345 -0.349773 2.869794 0.263498 11.307258 -29.370398 -3.493980 4.070966 -57.057269 -8.625861 16.162925 4.561954 -17.165497 13.573428 -13.277935 -14.829666 2.252321 29.792481 4.677232 5.897273 55.114097 5.163422 14.272307 -12.137816 21.779539 -0.405902 11.450113 8.229747 -3.801386 
52.562057 50.894798 92.220634 -177.520538 -0.082020 90.735355 3.551514 2.619501 3.113988 -4.826197 -3.686756 -5.403379 3.342914 9.448723 -5.938801 nan nan nan -5.177449 -4.100587 1.614271 4.529408 -2.829025 -2.117309 2.335976 -8.221265 -6.700539 nan nan nan -0.088028 0.742348 0.580651 1.615382 -4.122330 5.993165 1.252928 -0.687389 -4.070401 -0.539179 1.858831 -0.307877 2.881730 0.203148 11.273582 -29.368056 -3.506709 4.090449 -57.084707 -8.644273 16.152079 4.624205 -17.140044 13.517504 -13.406671 -14.825113 2.247525 29.829174 4.683474 5.876591 55.101723 5.124988 14.300883 -12.176097 21.771399 -0.332986 11.645547 8.207694 -3.751399 
52.573948 50.895359 92.229645 -177.527403 -0.068834 90.752981 3.571115 2.618289 3.090947 -4.825117 -3.682780 -5.391176 3.336360 9.413912 -5.963466 nan nan nan -5.155852 -4.127210 1.594249 4.525085 -2.817780 -2.111857 2.360987 -8.239541 -6.719863 nan nan nan -0.084635 0.789748 0.563658 1.630191 -4.087368 5.961935 1.259518 -0.732134 -4.039044 -0.502018 1.867436 -0.289090 2.846779 0.206971 11.269349 -29.397675 -3.498068 4.064301 -57.088864 -8.684806 16.150854 4.627571 -17.076497 13.490366 -13.419681 -14.759137 2.266113 29.819698 4.637141 5.830910 55.106822 5.127316 14.327632 -12.166916 21.744100 -0.312837 11.703971 8.181880 -3.697143 
52.581509 50.899128 92.239044 -177.514107 -0.066861 90.745741 3.581118 2.623716 3.093955 -4.828861 -3.674794 -5.387922 3.328122 9.394272 -5.962352 nan nan nan -5.164326 -4.133358 1.595180 4.533915 -2.808014 -2.091614 2.375160 -8.204314 -6.737554 nan nan nan -0.085889 0.791639 0.567808 1.632332 -4.091388 5.940406 1.264764 -0.731524 -4.017295 -0.485302 1.902715 -0.268392 2.844108 0.217253 11.219281 -29.409856 -3.506035 4.069904 -57.076288 -8.690611 16.129822 4.616943 -17.076733 13.483872 -13.399618 -14.766640 2.277611 29.824481 4.634436 5.836726 55.107075 5.133665 14.320834 -12.175369 21.726155 -0.314511 11.690713 8.185333 -3.664017 
52.581711 50.901035 92.242577 -177.501520 -0.063011 90.730167 3.583392 2.627299 3.108435 -4.827839 -3.683229 -5.387201 3.314753 9.395080 -5.960581 nan nan nan -5.175975 -4.136064 1.591495 4.549455 -2.815491 -2.044164 2.377885 -8.169056 -6.753502 nan nan nan -0.080505 0.779626 0.585608 1.625619 -4.093548 5.929801 1.260346 -0.729374 -4.008148 -0.491483 1.919793 -0.276137 2.853254 0.212601 11.196440 -29.418404 -3.507311 4.088282 -57.041029 -8.660478 16.100894 4.602107 -17.144875 13.448965 -13.364864 -14.802915 2.267671 29.844563 4.638925 5.843058 55.097426 5.128839 14.300228 -12.180076 21.740285 -0.332715 11.648337 8.203766 -3.650947 
